<svg width="40" height="40" viewBox="0 0 40 40" fill="none" xmlns="http://www.w3.org/2000/svg">
<path d="M21.6667 3.33325C21.2246 3.33325 20.8007 3.50885 20.4882 3.82141C20.1756 4.13397 20 4.55789 20 4.99992V18.3333C20 18.7753 20.1756 19.1992 20.4882 19.5118C20.8007 19.8243 21.2246 19.9999 21.6667 19.9999H35C35.442 19.9999 35.866 19.8243 36.1785 19.5118C36.4911 19.1992 36.6667 18.7753 36.6667 18.3333C36.6667 14.355 35.0863 10.5397 32.2733 7.72665C29.4602 4.9136 25.6449 3.33325 21.6667 3.33325ZM23.3333 16.6666V6.78325C25.827 7.14261 28.1374 8.29955 29.9189 10.0811C31.7004 11.8626 32.8573 14.1729 33.2167 16.6666H23.3333Z" fill="#FFC700"/>
<path d="M34.7 23.4332C34.4932 23.3593 34.2738 23.327 34.0545 23.3381C33.8352 23.3492 33.6202 23.4036 33.422 23.4981C33.2237 23.5926 33.0461 23.7253 32.8993 23.8886C32.7525 24.052 32.6395 24.2427 32.5667 24.4499C31.8156 26.5731 30.5389 28.4714 28.8558 29.9678C27.1727 31.4642 25.1379 32.5099 22.9414 33.0073C20.7449 33.5047 18.4582 33.4376 16.2946 32.8123C14.131 32.187 12.1611 31.0238 10.5686 29.4313C8.97606 27.8388 7.81289 25.8689 7.18758 23.7053C6.56226 21.5417 6.49517 19.255 6.99257 17.0585C7.48996 14.8619 8.53564 12.8272 10.032 11.1441C11.5284 9.46096 13.4268 8.1843 15.55 7.43321C15.9677 7.28734 16.3104 6.98151 16.5026 6.583C16.6948 6.18448 16.7209 5.72593 16.575 5.30821C16.4291 4.8905 16.1233 4.54784 15.7248 4.35561C15.3263 4.16339 14.8677 4.13734 14.45 4.28321C11.7951 5.22117 9.42104 6.81648 7.54951 8.92025C5.67798 11.024 4.36996 13.5676 3.74752 16.3137C3.12508 19.0598 3.20852 21.9188 3.99005 24.6239C4.77158 27.3291 6.22573 29.7921 8.21676 31.7831C10.2078 33.7741 12.6708 35.2283 15.3759 36.0098C18.081 36.7913 20.9401 36.8748 23.6861 36.2523C26.4322 35.6299 28.9759 34.3219 31.0796 32.4504C33.1834 30.5788 34.7787 28.2048 35.7167 25.5499C35.8608 25.1343 35.8348 24.6786 35.6444 24.2821C35.4539 23.8856 35.1145 23.5805 34.7 23.4332Z" fill="#FFC700"/>
</svg>
