<svg width="40" height="40" viewBox="0 0 40 40" fill="none" xmlns="http://www.w3.org/2000/svg">
<path d="M31.6666 6.66675H8.33325C7.00717 6.66675 5.7354 7.19353 4.79772 8.13121C3.86004 9.0689 3.33325 10.3407 3.33325 11.6667V28.3334C3.33325 29.6595 3.86004 30.9313 4.79772 31.8689C5.7354 32.8066 7.00717 33.3334 8.33325 33.3334H31.6666C32.9927 33.3334 34.2644 32.8066 35.2021 31.8689C36.1398 30.9313 36.6666 29.6595 36.6666 28.3334V11.6667C36.6666 10.3407 36.1398 9.0689 35.2021 8.13121C34.2644 7.19353 32.9927 6.66675 31.6666 6.66675ZM30.5499 10.0001L19.9999 17.9167L9.44992 10.0001H30.5499ZM31.6666 30.0001H8.33325C7.89122 30.0001 7.4673 29.8245 7.15474 29.5119C6.84218 29.1994 6.66659 28.7754 6.66659 28.3334V12.0834L18.9999 21.3334C19.2884 21.5498 19.6393 21.6667 19.9999 21.6667C20.3605 21.6667 20.7114 21.5498 20.9999 21.3334L33.3333 12.0834V28.3334C33.3333 28.7754 33.1577 29.1994 32.8451 29.5119C32.5325 29.8245 32.1086 30.0001 31.6666 30.0001Z" fill="#149211"/>
</svg>
