<svg width="40" height="40" viewBox="0 0 40 40" fill="none" xmlns="http://www.w3.org/2000/svg">
<path d="M36.6666 19.9999C36.6666 17.8112 36.2355 15.644 35.3979 13.6219C34.5603 11.5998 33.3327 9.76245 31.785 8.21481C30.2374 6.66716 28.4001 5.4395 26.378 4.60193C24.3559 3.76435 22.1886 3.33325 19.9999 3.33325C15.5796 3.33325 11.3404 5.0892 8.21481 8.21481C5.0892 11.3404 3.33325 15.5796 3.33325 19.9999C3.33325 24.4202 5.0892 28.6594 8.21481 31.785C11.3404 34.9106 15.5796 36.6666 19.9999 36.6666C24.4202 36.6666 28.6594 34.9106 31.785 31.785C34.9106 28.6594 36.6666 24.4202 36.6666 19.9999ZM33.2166 18.3333H28.3333C28.0584 14.4135 26.7154 10.6438 24.4499 7.43325C26.7774 8.25986 28.8295 9.7167 30.3774 11.6413C31.9253 13.5659 32.9083 15.8827 33.2166 18.3333ZM15.1333 21.6666H24.9999C24.5734 25.7842 22.8183 29.6512 19.9999 32.6833C17.1834 29.6639 15.4686 25.7821 15.1333 21.6666ZM15.1333 18.3333C15.5214 14.2363 17.2292 10.3761 19.9999 7.33325C22.8411 10.3435 24.6001 14.2133 24.9999 18.3333H15.1333ZM15.7333 7.38325C13.4558 10.6116 12.0913 14.3945 11.7833 18.3333H6.78325C7.09809 15.8524 8.10427 13.5101 9.68686 11.5739C11.2695 9.63762 13.3647 8.18547 15.7333 7.38325ZM6.78325 21.6666H11.7833C12.0577 25.602 13.4131 29.3854 15.6999 32.5999C13.3399 31.7938 11.2532 30.3419 9.67703 28.4092C8.10084 26.4765 7.09828 24.1405 6.78325 21.6666ZM24.3666 32.5833C26.6473 29.3677 28.0177 25.5962 28.3333 21.6666H33.2499C32.9347 24.1337 31.9358 26.4634 30.366 28.3925C28.7962 30.3216 26.7181 31.7732 24.3666 32.5833Z" fill="#F25822"/>
</svg>
