<svg width="25" height="25" viewBox="0 0 25 25" fill="none" xmlns="http://www.w3.org/2000/svg">
<path d="M13.4063 22.9167C12.9033 22.9161 12.4207 22.7178 12.0626 22.3646L5.38548 15.6771C5.21414 15.5067 5.10735 15.2821 5.0834 15.0417L4.16673 5.30209C4.1527 5.14952 4.1725 4.99573 4.22471 4.85169C4.27693 4.70764 4.36028 4.57689 4.46881 4.46875C4.57695 4.36021 4.7077 4.27687 4.85175 4.22465C4.99579 4.17244 5.14958 4.15264 5.30215 4.16667L15.0417 5.08334C15.2822 5.10729 15.5068 5.21408 15.6771 5.38542L22.3647 12.0625C22.719 12.4179 22.9179 12.8992 22.9179 13.401C22.9179 13.9029 22.719 14.3842 22.3647 14.7396L14.7396 22.3646C14.3854 22.7172 13.9062 22.9156 13.4063 22.9167ZM7.15631 14.4688L13.4063 20.7188L20.7501 13.375L14.5001 7.125L6.36465 6.36459L7.15631 14.4688Z" fill="#FFC700"/>
<path d="M10.9375 12.5C11.8004 12.5 12.5 11.8004 12.5 10.9375C12.5 10.0746 11.8004 9.375 10.9375 9.375C10.0746 9.375 9.375 10.0746 9.375 10.9375C9.375 11.8004 10.0746 12.5 10.9375 12.5Z" fill="#FFC700"/>
</svg>
