<svg width="16" height="16" viewBox="0 0 16 16" fill="none" xmlns="http://www.w3.org/2000/svg">
<path d="M11.6667 9.33346C11.4715 10.0124 11.0847 10.6207 10.5526 11.0854C10.0205 11.5501 9.3657 11.8515 8.66666 11.9535C8.12001 12.0328 7.56298 12.0008 7.02899 11.8595C6.49501 11.7182 5.99508 11.4704 5.55924 11.131C5.12339 10.7917 4.7606 10.3678 4.49266 9.88476C4.22472 9.40173 4.05714 8.86954 3.99999 8.32013C3.95572 7.76857 4.02637 7.21382 4.20747 6.69096C4.38857 6.16809 4.67619 5.68849 5.05213 5.28248C5.42807 4.87646 5.88416 4.55286 6.39157 4.33213C6.89898 4.11141 7.44666 3.99836 7.99999 4.00013C8.5185 4.00086 9.03211 4.10041 9.51333 4.29346C9.5891 4.32748 9.67485 4.33198 9.75377 4.30609C9.83269 4.28019 9.8991 4.22576 9.93999 4.15346L10.9 2.3868C10.9207 2.3461 10.9331 2.30173 10.9366 2.25623C10.94 2.21072 10.9345 2.16498 10.9202 2.12162C10.906 2.07826 10.8833 2.03814 10.8535 2.00357C10.8238 1.96899 10.7874 1.94064 10.7467 1.92013C9.71581 1.4534 8.58311 1.25676 7.45527 1.34871C6.32742 1.44066 5.24154 1.81818 4.2999 2.44572C3.35825 3.07326 2.59184 3.93016 2.07285 4.93572C1.55385 5.94127 1.29936 7.06238 1.33333 8.19346C1.39902 9.87339 2.08958 11.4683 3.26971 12.6657C4.44985 13.8631 6.03453 14.5767 7.71333 14.6668C9.47194 14.7448 11.19 14.124 12.4927 12.94C13.7954 11.756 14.5769 10.1048 14.6667 8.3468V7.01346C14.665 6.92559 14.6293 6.84179 14.5671 6.77965C14.505 6.7175 14.4212 6.68184 14.3333 6.68013H8.33333C8.24492 6.68013 8.16014 6.71525 8.09763 6.77776C8.03511 6.84027 7.99999 6.92506 7.99999 7.01346V9.01346C7.99999 9.10187 8.03511 9.18665 8.09763 9.24916C8.16014 9.31168 8.24492 9.3468 8.33333 9.3468H11.6667" fill="#AAAAAA"/>
</svg>
